HIERARCHY
ROOT Bip001_Pelvis
{
  OFFSET 34.4345 95.6767 -26.8758
  CHANNELS 6 Xposition Yposition Zposition Zrotation Xrotation Yrotation
  JOINT Bip001_Spine
  {
    OFFSET 1.4188e-005 10.2191 -0.0116013
    CHANNELS 3 Zrotation Xrotation Yrotation
    JOINT Bip001_L_Thigh
    {
      OFFSET 11.0458 -10.2192 0.0116197
      CHANNELS 3 Zrotation Xrotation Yrotation
      JOINT Bip001_L_Calf
      {
        OFFSET -0.707118 -44.0221 0.360014
        CHANNELS 3 Zrotation Xrotation Yrotation
        JOINT Bip001_L_Foot
        {
          OFFSET -0.651902 -40.5938 -3.56146
          CHANNELS 3 Zrotation Xrotation Yrotation
          JOINT Bip001_L_Toe0
          {
            OFFSET 0.0530839 -10.2181 13.1504
            CHANNELS 3 Zrotation Xrotation Yrotation
            End Site
            {
              OFFSET -1.02532e-005 0 7.55606
            }
          }
        }
      }
    }
    JOINT Bip001_R_Thigh
    {
      OFFSET -11.0458 -10.2191 0.0115893
      CHANNELS 3 Zrotation Xrotation Yrotation
      JOINT Bip001_R_Calf
      {
        OFFSET 0.706994 -44.0221 0.35984
        CHANNELS 3 Zrotation Xrotation Yrotation
        JOINT Bip001_R_Foot
        {
          OFFSET 0.651786 -40.5938 -3.5613
          CHANNELS 3 Zrotation Xrotation Yrotation
          JOINT Bip001_R_Toe0
          {
            OFFSET -0.0531479 -10.2181 13.1504
            CHANNELS 3 Zrotation Xrotation Yrotation
            End Site
            {
              OFFSET -1.02894e-005 0 7.55606
            }
          }
        }
      }
    }
    JOINT Bip001_Spine1
    {
      OFFSET 1.87041e-005 14.5736 1.08638
      CHANNELS 3 Zrotation Xrotation Yrotation
      JOINT Bip001_Spine2
      {
        OFFSET 2.24614e-005 14.5058 -1.69078
        CHANNELS 3 Zrotation Xrotation Yrotation
        JOINT Bip001_Neck
        {
          OFFSET 2.20278e-005 15.3945 -0.489414
          CHANNELS 3 Zrotation Xrotation Yrotation
          JOINT Bip001_L_Clavicle
          {
            OFFSET 6.06036 -0.000579998 0.00836775
            CHANNELS 3 Zrotation Xrotation Yrotation
            JOINT Bip001_L_UpperArm
            {
              OFFSET 11.5509 -0.0600302 0.00193952
              CHANNELS 3 Zrotation Xrotation Yrotation
              JOINT Bip001_L_Forearm
              {
                OFFSET 25.9523 0.0806089 -2.15551
                CHANNELS 3 Zrotation Xrotation Yrotation
                JOINT Bip001_L_Hand
                {
                  OFFSET 32.2475 0.153767 1.63968
                  CHANNELS 3 Zrotation Xrotation Yrotation
                  JOINT Bip001_L_Finger0
                  {
                    OFFSET 6.04639 -2.20976 5.90322
                    CHANNELS 3 Zrotation Xrotation Yrotation
                    End Site
                    {
                      OFFSET 4.22375 -1.43895 0.606485
                    }
                  }
                  JOINT Bip001_L_Finger1
                  {
                    OFFSET 11.0826 -0.704819 -0.198153
                    CHANNELS 3 Zrotation Xrotation Yrotation
                    End Site
                    {
                      OFFSET 6.20027 -0.397518 -0.0787166
                    }
                  }
                }
              }
            }
          }
          JOINT Bip001_R_Clavicle
          {
            OFFSET -6.06037 -0.000563197 0.00835105
            CHANNELS 3 Zrotation Xrotation Yrotation
            JOINT Bip001_R_UpperArm
            {
              OFFSET -11.5509 -0.0599978 0.00190698
              CHANNELS 3 Zrotation Xrotation Yrotation
              JOINT Bip001_R_Forearm
              {
                OFFSET -25.9523 0.0806822 -2.15589
                CHANNELS 3 Zrotation Xrotation Yrotation
                JOINT Bip001_R_Hand
                {
                  OFFSET -32.2475 0.153859 1.63989
                  CHANNELS 3 Zrotation Xrotation Yrotation
                  JOINT Bip001_R_Finger0
                  {
                    OFFSET -6.04641 -2.20976 5.90317
                    CHANNELS 3 Zrotation Xrotation Yrotation
                    End Site
                    {
                      OFFSET -4.22376 -1.43895 0.60647
                    }
                  }
                  JOINT Bip001_R_Finger1
                  {
                    OFFSET -11.0826 -0.704794 -0.198182
                    CHANNELS 3 Zrotation Xrotation Yrotation
                    End Site
                    {
                      OFFSET -6.20028 -0.397504 -0.0787333
                    }
                  }
                }
              }
            }
          }
          JOINT Bip001_Head
          {
            OFFSET 1.09673e-005 11.2744 2.05948
            CHANNELS 3 Zrotation Xrotation Yrotation
            End Site
            {
              OFFSET 2.89576e-005 20.8808 -2.77728e-005
            }
          }
        }
      }
    }
  }
}
MOTION
Frames:	8
Frame Time:	0.04
38.1943 95.0945 -32.6084 -1.37592 -5.11532 -17.4621 0.561051 2.92809 -1.42533 2.08275 0.46273 14.7571 -0.840767 13.4094 12.6175 5.61634 -6.69722 0.104397 1.88607 -6.56632 -0.310191 -8.11518 -7.47908 1.74167 -0.752805 14.3249 2.0436 -2.82187 -6.16566 6.60537 3.16975 -10.8376 3.96299 1.19731 5.84114 -2.88494 1.19731 5.84115 -2.88494 2.35442 -2.77074 6.9131 -22.1024 7.70356 -11.1625 -47.0043 33.6232 -6.2159 12.3349 -9.00135 -30.2853 12.2371 -0.209796 -5.99267 0 0 -1.59028e-015 3.18055e-015 0 -3.18055e-015 24.9103 6.99193 11.3959 64.4365 30.8353 -12.6964 -15.6238 -11.9758 8.06857 6.3461 -5.81285 -12.281 1.19271e-015 1.59028e-015 -0 3.97569e-016 1.59028e-015 -0 -2.30052 -4.35112 7.85757 
38.0457 94.9556 -32.4567 -1.65452 -5.49672 -18.2668 0.650731 3.08452 -1.54723 2.23043 0.608636 15.7267 -0.873496 14.2387 12.2746 6.13686 -6.79623 0.105648 1.93747 -7.03374 -0.339727 -7.83924 -7.75321 2.7401 -0.884136 15.3204 1.9153 -3.04009 -6.68703 6.7171 3.23457 -11.0102 4.00839 1.38612 6.15013 -3.13585 1.38802 6.15014 -3.13611 2.69121 -2.61975 7.77897 -22.034 7.92803 -12.2607 -47.1352 34.355 -6.82244 12.6098 -8.65193 -31.8715 12.3445 -0.212889 -5.79854 -2.20695e-032 -7.95139e-016 -1.59028e-015 -9.54166e-015 0 1.59028e-015 24.7948 6.53129 10.6228 65.6604 30.6519 -14.7432 -15.4406 -9.43207 7.51133 9.97079 -6.24432 -10.9295 -7.95139e-016 -1.59028e-015 9.54166e-015 -0 0 3.18055e-015 -2.54418 -4.96321 8.84924 
37.9985 94.8128 -32.4049 -1.8004 -5.73403 -18.7523 0.663525 3.19883 -1.68901 2.42262 0.4594 15.8246 -1.15114 15.146 12.7569 6.76793 -6.89372 0.114253 2.16094 -7.45585 -0.47899 -7.69746 -8.21692 3.87403 -0.68546 16.3973 1.94047 -3.43715 -7.09133 6.19992 3.30651 -11.2097 4.0724 1.42628 6.37641 -3.42349 1.42438 6.37642 -3.42324 2.96474 -2.48258 8.51973 -21.9449 8.08477 -13.1198 -47.1844 34.873 -7.01928 13.7347 -6.76667 -33.0066 11.9647 -0.537474 -6.42158 -3.18055e-015 -1.59028e-015 1.59028e-015 3.18055e-015 -3.18056e-015 -2.38542e-015 24.8788 5.94976 9.37269 65.9313 28.3831 -16.0813 -17.5626 -3.56058 8.22404 11.7718 -6.0268 -7.87751 7.95139e-016 0 3.18055e-015 -1.76556e-031 3.18056e-015 3.18055e-015 -2.66709 -5.70906 9.67922 
37.9571 94.654 -32.3621 -2.05776 -6.1008 -18.9437 0.648836 3.34404 -1.85807 2.8347 0.217558 15.6581 -1.53214 16.492 13.389 7.05104 -7.44273 0.146403 2.27716 -7.50451 -0.550547 -7.40627 -8.46774 4.89959 -0.565223 17.4384 1.94311 -3.88762 -7.43516 5.57853 3.39222 -11.4366 4.13402 1.40433 6.66504 -3.76311 1.40745 6.66507 -3.76319 3.51664 -2.0644 9.09053 -21.7353 7.95175 -14.3112 -48.029 34.9017 -6.56291 15.8907 -3.98952 -33.9024 10.8012 -0.933809 -7.35028 3.18055e-015 -3.77691e-015 -1.39149e-015 -7.72434e-032 -2.78299e-015 -1.59028e-015 24.4363 5.11152 8.06233 64.2748 24.5331 -15.3712 -18.4517 3.05389 9.86439 10.5343 -6.35327 -3.17916 7.95139e-016 6.36111e-015 -0 1.19271e-015 6.36111e-015 -1.59028e-015 -3.11855 -6.61685 10.4798 
37.9375 94.489 -32.3023 -2.31699 -6.52373 -19.117 0.660824 3.51339 -2.03982 3.1766 0.136097 16.4819 -1.69643 17.6207 12.8058 7.43717 -7.86219 0.176252 2.25091 -7.67741 -0.43801 -7.16528 -8.6456 5.99883 -0.40411 18.4139 2.03496 -4.42716 -7.75496 4.75758 3.47366 -11.6746 4.22898 1.45087 7.0007 -4.13179 1.45087 7.00071 -4.1318 3.22408 -1.74946 9.90818 -21.0368 7.89434 -15.4637 -48.4533 35.4799 -6.11295 17.2647 -2.27542 -34.4463 9.65323 -1.10744 -7.79434 6.36111e-015 2.38542e-015 -2.38542e-015 3.5863e-032 2.5842e-015 -7.95139e-016 24.4895 4.15947 6.62306 63.5039 22.3704 -14.3635 -19.8495 4.06581 10.6668 7.6642 -8.20979 1.33193 -3.97569e-016 0 -0 -9.93923e-016 1.59028e-015 -0 -2.91296 -7.22156 11.1832 
37.9063 94.3292 -32.2245 -2.65849 -6.92259 -19.3004 0.748384 3.65509 -2.17373 3.58633 0.186965 16.4633 -2.24622 18.6062 13.1256 7.86751 -8.29263 0.22363 2.29334 -7.87617 -0.479332 -6.89895 -8.7276 6.4659 -0.49459 19.3128 2.41774 -4.88423 -8.03052 4.28187 3.58984 -11.9562 4.27461 1.64027 7.27872 -4.40924 1.64034 7.27874 -4.4089 2.58465 -1.64912 10.5544 -20.2351 7.88616 -16.1015 -48.8022 36.6068 -5.935 18.3092 -1.02065 -34.213 8.04061 -1.44895 -8.26532 6.36111e-015 -1.59028e-015 1.59028e-015 1.27222e-014 -2.38542e-015 2.78299e-015 24.5029 3.5198 5.58692 62.3895 17.0821 -12.8395 -21.0167 0.0862516 12.2598 5.00222 -10.0533 2.12223 5.684e-016 9.93923e-017 -0 -1.13059e-015 0 -0 -2.84977 -7.59662 11.6431 
37.9825 94.1033 -32.1474 -2.88832 -7.37486 -19.3047 0.842668 3.74705 -2.18443 3.76313 0.042498 16.7608 -2.36051 20.0322 12.8925 7.85454 -9.1788 0.285832 2.26652 -7.85665 -0.521695 -6.92814 -8.87004 6.43424 -0.534879 20.5207 2.73045 -5.25025 -8.5355 4.00573 3.7308 -12.3316 4.39698 1.83586 7.45874 -4.43501 1.83584 7.45877 -4.43696 2.19743 -1.676 10.7876 -19.9369 8.00194 -16.4764 -49.0392 37.6648 -5.66979 18.1199 -0.504361 -33.7491 7.37376 -1.25484 -8.19308 -3.18055e-015 0 -3.97569e-016 -3.18055e-015 -1.59028e-015 -1.19271e-015 24.0728 3.27449 5.02491 61.8659 8.63812 -12.5626 -22.225 -5.38556 17.9108 -0.711629 -11.8621 -1.44894 -5.96354e-016 -1.59028e-015 -0 -2.38542e-015 -1.59028e-015 -0 -3.27053 -7.58702 11.798 
38.1511 93.9039 -32.1089 -2.9401 -7.80346 -19.3628 0.863313 3.78388 -2.07861 3.80873 0.0451982 15.9135 -3.07184 20.8976 13.6668 8.54595 -9.47518 0.326085 2.19034 -8.13561 -0.462946 -7.16411 -9.10459 6.24879 -0.463072 21.7519 3.24085 -5.67589 -8.90554 3.54601 3.88442 -12.6929 4.46054 1.86316 7.53332 -4.2284 1.86496 7.53337 -4.22776 1.08247 -2.44869 10.983 -19.2013 8.67018 -16.2601 -48.9717 39.0198 -4.77298 18.2323 -0.137881 -33.716 6.94727 -1.06245 -7.97931 -9.54166e-015 7.95139e-016 3.97569e-016 -1.27222e-014 7.95139e-016 -3.97569e-016 23.9827 3.61306 4.34073 62.7323 1.29917 -13.2079 -24.4309 -7.21965 26.9898 -10.5702 -13.1562 -3.70995 -1.59028e-015 9.54166e-015 -3.97569e-016 -2.28602e-015 9.54167e-015 1.19271e-015 -2.96601 -6.53137 11.6385 
